
        <svg xmlns="http://www.w3.org/2000/svg" xmlns:xlink="http://www.w3.org/1999/xlink" version="1.1" width="3187.5" height="1094.2449721078294" viewBox="0 0 3187.5 1094.2449721078294">
			
			<g transform="scale(9.375) translate(10, 10)">
				<defs id="SvgjsDefs1255"/><g id="SvgjsG1256" featureKey="symbolFeature-0" transform="matrix(1.1312217975614245,0,0,1.1312217975614245,-6.561088259845459,-9.27601960305742)" fill="#fff"><g xmlns="http://www.w3.org/2000/svg"><path d="M54.9,65.6h-9.8c-0.5,0-1-0.4-1-1s0.4-1,1-1h9.8c0.5,0,1,0.4,1,1S55.5,65.6,54.9,65.6z M82.3,20.6c0,2.4-2,4.4-4.4,4.4   c-0.8,0-1.6-0.2-2.2-0.6L59.5,41.6c0.6,0.7,0.9,1.6,0.9,2.6c0,2.4-2,4.4-4.4,4.4s-4.4-2-4.4-4.4c0-1,0.3-1.9,0.9-2.6l-9.4-10.2   c-0.8,0.7-1.8,1.2-3,1.2c-1,0-2-0.4-2.7-1L25.3,46.3c0.8,0.8,1.3,1.9,1.3,3.1c0,2.4-2,4.4-4.4,4.4s-4.4-2-4.4-4.4   c0-2.4,2-4.4,4.4-4.4c0.5,0,1,0.1,1.5,0.3L36.2,30c-0.3-0.6-0.4-1.2-0.4-1.9c0-2.4,2-4.4,4.4-4.4c2.4,0,4.4,2,4.4,4.4   c0,0.6-0.1,1.1-0.3,1.6L54,40.3c0.6-0.3,1.3-0.5,2-0.5c0.7,0,1.4,0.2,2,0.5l16.2-17.3c-0.5-0.7-0.8-1.6-0.8-2.5   c0-2.4,2-4.4,4.4-4.4S82.3,18.2,82.3,20.6z M24.6,49.4c0-1.4-1.1-2.5-2.5-2.5s-2.5,1.1-2.5,2.5s1.1,2.5,2.5,2.5   S24.6,50.8,24.6,49.4z M42.6,28.1c0-1.4-1.1-2.5-2.5-2.5s-2.5,1.1-2.5,2.5s1.1,2.5,2.5,2.5S42.6,29.5,42.6,28.1z M58.5,44.2   c0-1.4-1.1-2.5-2.5-2.5s-2.5,1.1-2.5,2.5s1.1,2.5,2.5,2.5S58.5,45.6,58.5,44.2z M80.3,20.6c0-1.4-1.1-2.5-2.5-2.5s-2.5,1.1-2.5,2.5   s1.1,2.5,2.5,2.5S80.3,22,80.3,20.6z M94.2,14.3v51.5c0,3.4-2.7,6.1-6.1,6.1h-32l2.7,11.7h4.3c2.8,0,5,2.3,5,5v0.1c0,2.8-2.3,5-5,5   H36.9c-2.8,0-5-2.3-5-5v-0.1c0-2.8,2.3-5,5-5h4.3l2.7-11.7h-32c-3.4,0-6.1-2.7-6.1-6.1V14.3c0-3.4,2.7-6.1,6.1-6.1h76.2   C91.5,8.2,94.2,10.9,94.2,14.3z M36.9,85.5c-1.7,0-3.1,1.4-3.1,3.1v0.1c0,1.7,1.4,3.1,3.1,3.1h26.2c1.7,0,3.1-1.4,3.1-3.1v-0.1   c0-1.7-1.4-3.1-3.1-3.1H36.9z M54.2,71.9h-8.3l-2.7,11.7h13.7L54.2,71.9z M92.3,59.9H7.7v5.9c0,2.3,1.9,4.2,4.2,4.2h76.2   c2.3,0,4.2-1.9,4.2-4.2V59.9z M92.3,14.3c0-2.3-1.9-4.2-4.2-4.2H11.9c-2.3,0-4.2,1.9-4.2,4.2V58h84.6V14.3z"/></g></g><g id="SvgjsG1257" featureKey="nameFeature-0" transform="matrix(2.5227043778944642,0,0,2.5227043778944642,113.44096945951782,-14.126138105900772)" fill="#fff"><path d="M2.6 39.56 l0 -29.6 l1.64 0 c0.24 0 0.44 0.2 0.44 0.44 l0 29.6 l-1.64 0 c-0.24 0 -0.44 -0.2 -0.44 -0.44 z M9.68 20 l1.8 0 l0 1.32 s0.8 -1.32 3.52 -1.32 l4.56 0 l0 1.24 c0 0.24 -0.2 0.4 -0.44 0.4 l-4.92 0 c-2.8 0 -2.72 2.88 -2.72 2.88 l0 15.48 l-1.8 0 l0 -20 z M32.92 19.96 c2.76 0 4.96 2.28 4.96 5.04 l0 14.56 c0 0.24 -0.2 0.44 -0.44 0.44 l-10.04 0 c-2.76 0 -4.96 -2.24 -4.96 -5 l0 -2.08 c0 -2.8 2.2 -5.04 4.96 -5.04 l8.24 0 c0.24 0 0.4 -0.16 0.44 -0.44 l0 -2.6 c0 -1.76 -1.4 -3.2 -3.16 -3.2 l-8.36 0 c-0.2 0 -0.4 -0.2 -0.4 -0.44 l0 -1.24 l8.76 0 z M27.4 38.24 l8.68 0 l0 -8.84 c-0.08 0.08 -0.2 0.16 -0.32 0.16 l-8.36 0 c-1.76 0 -3.16 1.44 -3.16 3.2 l0 2.32 c0 1.76 1.4 3.16 3.16 3.16 z M53.120000000000005 29.48 l-0.68 0.36 l4.96 10.12 l-1.6 0 c-0.24 0 -0.48 -0.16 -0.6 -0.36 l-4.6 -9.52 l-5.48 0 c-0.36 0 -0.64 0.32 -0.68 0.68 l0 8.8 c0 0.24 -0.2 0.44 -0.44 0.44 l-1.36 0 l0 -27.16 l1.36 0 c0.24 0 0.44 0.2 0.44 0.44 l0 15.8 c0.12 -0.4 0.56 -0.68 1.12 -0.68 l5.16 0 c1.76 0 3.72 -1.4 3.72 -3.16 l0 -4.84 c0 -0.24 0.2 -0.44 0.44 -0.44 l1.36 0 l0 5.12 c0 1.8 -1.52 3.48 -3.12 4.4 z M60.4 39.56 l0 -27.92 l1.36 0 c0.24 0 0.44 0.2 0.44 0.44 l0 27.88 l-1.36 0 c-0.24 0 -0.44 -0.16 -0.44 -0.4 z M76.92 19.96 c2.76 0 4.96 2.28 4.96 5.04 l0 14.56 c0 0.24 -0.2 0.44 -0.44 0.44 l-10.04 0 c-2.76 0 -4.96 -2.24 -4.96 -5 l0 -2.08 c0 -2.8 2.2 -5.04 4.96 -5.04 l8.24 0 c0.24 0 0.4 -0.16 0.44 -0.44 l0 -2.6 c0 -1.76 -1.4 -3.2 -3.16 -3.2 l-8.36 0 c-0.2 0 -0.4 -0.2 -0.4 -0.44 l0 -1.24 l8.76 0 z M71.39999999999999 38.24 l8.68 0 l0 -8.84 c-0.08 0.08 -0.2 0.16 -0.32 0.16 l-8.36 0 c-1.76 0 -3.16 1.44 -3.16 3.2 l0 2.32 c0 1.76 1.4 3.16 3.16 3.16 z"/></g>
			</g>
		</svg>
	